<?xml version="1.0" encoding="utf-8"?>
<!-- Generator: Adobe Illustrator 25.2.3, SVG Export Plug-In . SVG Version: 6.00 Build 0)  -->
<svg version="1.1" id="Layer_1" xmlns="http://www.w3.org/2000/svg" xmlns:xlink="http://www.w3.org/1999/xlink" x="0px" y="0px"
	 viewBox="0 0 500 500" style="enable-background:new 0 0 500 500;" xml:space="preserve">
<style type="text/css">
	.st0{fill:none;stroke:#FFFFFF;stroke-width:2.8381;}
	.st1{fill:none;stroke:#98B7DD;stroke-width:4.3718;}
	.st2{fill:#BE0027;}
	.st3{fill:#ED1C24;}
</style>
<path class="st0" d="M1354.6,637"/>
<path d="M1429.2,586.9"/>
<path class="st1" d="M1429.2,586.9"/>
<path class="st2" d="M1296.4,618.8"/>
<path class="st1" d="M1296.4,618.8"/>
<path class="st2" d="M1296.4,618.8"/>
<path class="st1" d="M1296.4,618.8"/>
<path d="M1429.2,586.9"/>
<path class="st1" d="M1429.2,586.9"/>
<g>
	<path class="st3" d="M305,78.4l-74,48.5l46.8-3.2c0,0-60.7,118.3-179.6,134.6c4.4,0.3,8.8,0.8,13.1,0.3
		c144.5-18.1,202.1-134.9,202.1-134.9H351L305,78.4L305,78.4z"/>
	<path class="st3" d="M343.9,218c-0.2,19.8-16.5,36-36.2,35.8c-20.3-0.2-36.2-16.5-36-36.9c0.2-19.7,16.7-35.8,36.5-35.6
		C328.2,181.5,344.1,197.8,343.9,218L343.9,218z"/>
	<path class="st3" d="M254.3,396.2c0.5-11.1-9.7-91.3-7.3-102.1c2.1-9.4,7.3-16.8,14.9-22.5c6.7-5.1,14.3-8.4,22.4-10.6
		c2.1-0.6,3.5-0.3,5.1,1.2c4.8,4.3,9.6,8.5,14.5,12.7c1.2,1,2.4,2,3.9,3.3c1.4-1.1,2.6-2.1,3.8-3.1c4.1-3.5,8.4-6.8,12.1-10.7
		c3.4-3.6,6.8-4,11.2-2.4c8.4,3.1,16.4,6.8,22.9,13.2c7,6.8,11.2,15.1,11.6,24.8c0.4,8.9-8.6,87-8.6,96.5
		C357.9,396.5,258.1,396.2,254.3,396.2L254.3,396.2z"/>
	<path class="st3" d="M230.2,282.2c-0.1,12.7-10.6,23-23.2,22.9c-13-0.1-23.2-10.6-23-23.6c0.1-12.6,10.7-22.9,23.3-22.8
		C220.2,258.9,230.3,269.3,230.2,282.2L230.2,282.2z"/>
	<path class="st3" d="M172.8,396.3c0.3-7.1-6.2-58.4-4.7-65.3c1.3-6,4.7-10.7,9.5-14.4c4.3-3.3,9.1-5.4,14.3-6.8
		c1.3-0.4,2.3-0.2,3.3,0.8c3,2.8,6.2,5.4,9.3,8.1c0.8,0.7,1.6,1.3,2.5,2.1c0.9-0.7,1.7-1.3,2.4-2c2.6-2.3,5.4-4.4,7.8-6.9
		c2.2-2.3,4.3-2.6,7.2-1.5c5.4,2,10.5,4.4,14.7,8.5c4.5,4.4,7.1,9.6,7.4,15.9c0.3,5.7-5.5,55.7-5.5,61.8
		C239.2,396.5,175.3,396.3,172.8,396.3L172.8,396.3z"/>
	<path class="st3" d="M153.1,322.2c-0.1,8.3-6.9,15-15.1,14.9c-8.4-0.1-15.1-6.9-15-15.4c0.1-8.2,6.9-14.9,15.2-14.8
		C146.6,307,153.2,313.8,153.1,322.2L153.1,322.2z"/>
	<path class="st3" d="M115.9,396.4c0.2-4.6-4-38-3.1-42.5c0.9-3.9,3.1-7,6.2-9.4c2.8-2.1,5.9-3.5,9.3-4.4c0.9-0.2,1.5-0.1,2.1,0.5
		c2,1.8,4,3.5,6,5.3c0.5,0.4,1,0.9,1.6,1.4c0.6-0.5,1.1-0.9,1.6-1.3c1.7-1.5,3.5-2.8,5-4.5c1.4-1.5,2.8-1.7,4.7-1
		c3.5,1.3,6.8,2.8,9.5,5.5c2.9,2.8,4.6,6.3,4.8,10.3c0.2,3.7-3.6,36.2-3.6,40.2C159,396.5,117.5,396.4,115.9,396.4L115.9,396.4z"/>
</g>
</svg>
