<!-- Generator: Adobe Illustrator 25.2.3, SVG Export Plug-In . SVG Version: 6.00 Build 0)  -->
<svg version="1.1" id="Layer_1" xmlns="http://www.w3.org/2000/svg" xmlns:xlink="http://www.w3.org/1999/xlink" x="0px" y="0px"
	 viewBox="0 0 500 500" style="enable-background:new 0 0 500 500;" xml:space="preserve">
<style type="text/css">
	.st0{fill:none;stroke:#FFFFFF;stroke-width:2.8381;}
	.st1{fill:none;stroke:#98B7DD;stroke-width:4.3718;}
	.st2{fill:#BE0027;}
	.st3{fill:#ED1C24;}
</style>
<path class="st0" d="M1354.6,637"/>
<path d="M1429.2,586.9"/>
<path class="st1" d="M1429.2,586.9"/>
<path class="st2" d="M1296.4,618.8"/>
<path class="st1" d="M1296.4,618.8"/>
<path class="st2" d="M1296.4,618.8"/>
<path class="st1" d="M1296.4,618.8"/>
<path d="M1429.2,586.9"/>
<path class="st1" d="M1429.2,586.9"/>
<g>
	<path class="st3" d="M349.3,279.3v-42.6H327c-2-7.7-5-15-9-21.9l15.8-15.9L304,168.8l-15.8,15.9c-6.8-4-14-7.1-21.7-9v-22.5h-42.2
		v22.5c-7.6,2-14.9,5-21.7,9l-15.8-15.9L157,198.9l15.7,15.9c-4,6.8-7,14.1-9,21.9h-22.3v42.6h22.3c2,7.7,5,15,9,21.9L157,317
		l29.8,30.1l15.8-15.9c6.8,4,14,7.1,21.7,9v22.5h42.2v-22.5c7.7-2,14.9-5,21.7-9l15.8,15.9l29.8-30.1l-15.7-15.9
		c4-6.8,7-14.1,9-21.9H349.3z M245.4,326.5c-39.6,0-71.8-32.1-71.8-71.8c0-39.6,32.1-71.8,71.8-71.8c39.6,0,71.8,32.1,71.8,71.8
		C317.2,294.4,285.1,326.5,245.4,326.5z"/>
	<path class="st3" d="M258.8,256.1c0,0-0.3-2.1-0.6-3.1c-2.2-6.4-9.3-9.9-15.8-7.7c-6.4,2.2-9.9,9.3-7.7,15.8
		c2.2,6.4,9.3,9.9,15.8,7.7c1.1-0.4,2.8-1.4,2.8-1.4l46.6,15L258.8,256.1L258.8,256.1z"/>
	<path class="st3" d="M111.3,330.3c-17.2-34.8-18.6-70.4-3.7-101.6l8.1,6.6c2.6,2.2,6.3,0.1,6.4-3.9l2.8-55.5
		c0.3-3.7-2.9-6.2-5.7-4.8L76.9,194c-2.9,1.5-3.5,6.5-0.9,8.7l8.4,7c-8.2,18.2-23.3,68.8,20.4,126.3
		C108.4,340.1,113.7,335.1,111.3,330.3L111.3,330.3L111.3,330.3z"/>
	<path class="st3" d="M379.5,191c17.2,34.8,18.6,70.4,3.7,101.6l-8.1-6.6c-2.6-2.2-6.3-0.1-6.4,3.9l-2.8,55.5
		c-0.3,3.7,2.9,6.2,5.7,4.8l42.2-22.9c2.9-1.5,3.5-6.5,0.9-8.7l-8.4-7c8.2-18.2,23.3-68.8-20.4-126.3
		C382.4,181.1,377.1,186.1,379.5,191L379.5,191L379.5,191z"/>
	<path class="st3" d="M196.8,105.7c32.1-10.7,61.1-5.8,82.7,14.1l-7.2,6.7c-2.4,2.2-1.6,6.1,1.7,6.8l44.1,12.3
		c2.9,0.9,5.7-1.7,5.2-4.7l-8.4-44.9c-0.5-3-4.4-4.5-6.8-2.4l-7.6,6.9c-12.7-11.1-49.9-34.6-106.6-2
		C189.5,101.1,192.3,107.2,196.8,105.7L196.8,105.7L196.8,105.7z"/>
	<path class="st3" d="M164.7,396.2c-3.8,0-6.8,3.1-6.8,6.8l0,0c0,3.8,3.1,6.8,6.8,6.8h162.4c3.8,0,6.8-3.1,6.8-6.8l0,0
		c0-3.8-3.1-6.8-6.8-6.8H164.7L164.7,396.2z"/>
</g>
</svg>
