<?xml version="1.0" encoding="utf-8"?>
<!-- Generator: Adobe Illustrator 25.2.3, SVG Export Plug-In . SVG Version: 6.00 Build 0)  -->
<svg version="1.1" id="Layer_1" xmlns="http://www.w3.org/2000/svg" xmlns:xlink="http://www.w3.org/1999/xlink" x="0px" y="0px"
	 viewBox="0 0 500 500" style="enable-background:new 0 0 500 500;" xml:space="preserve">
<style type="text/css">
	.st0{fill:none;stroke:#FFFFFF;stroke-width:2.8381;}
	.st1{fill:none;stroke:#98B7DD;stroke-width:4.3718;}
	.st2{fill:#BE0027;}
	.st3{fill:#ED1C24;}
</style>
<path class="st0" d="M1354.6,637"/>
<path d="M1429.2,586.9"/>
<path class="st1" d="M1429.2,586.9"/>
<path class="st2" d="M1296.4,618.8"/>
<path class="st1" d="M1296.4,618.8"/>
<path class="st2" d="M1296.4,618.8"/>
<path class="st1" d="M1296.4,618.8"/>
<path d="M1429.2,586.9"/>
<path class="st1" d="M1429.2,586.9"/>
<g>
	<path class="st3" d="M346,313.1c5.5-12.6,8.5-26.4,8.5-41c0-12.1-2.1-23.7-6-34.5c7.3,2.4,15.6,1.8,22.8-2.3
		c13.4-7.8,18-24.9,10.3-38.4c-7.8-13.4-24.9-18-38.4-10.3c-7.2,4.2-11.9,11.1-13.5,18.7c-16.5-19.4-40.1-32.6-66.6-35.6v23.8
		c38.1,5.8,67.6,38.9,67.6,78.6c0,10.2-2,20-5.5,29L346,313.1L346,313.1L346,313.1z"/>
	<path class="st3" d="M270.1,373.5c26.1-4.8,48.7-19.5,64-40l-20.7-11.9c-14.6,18.2-37,30-62,30c-25,0-47.4-11.8-62-30l-20.7,11.9
		c15.3,20.5,37.9,35.2,64,40c-5.7,5.1-9.4,12.6-9.4,20.9c0,15.5,12.6,28.1,28.1,28.1c15.5,0,28.1-12.6,28.1-28.1
		C279.5,386.2,275.9,378.7,270.1,373.5L270.1,373.5L270.1,373.5z"/>
	<path class="st3" d="M422.7,371c-7.8,13.4-24.9,18-38.4,10.3c-7-4.1-11.6-10.7-13.3-18c-19.7,25.8-47.6,45.1-79.8,53.9
		c3.8-6.7,6.1-14.5,6.1-22.7c0-1.4-0.1-2.7-0.2-4.1c47.4-18.4,81.1-64.4,81.1-118.2c0-6.7-0.5-13.2-1.5-19.6
		c1.2-0.6,2.4-1.2,3.6-1.9c7.2-4.1,12.8-9.9,16.7-16.6c3.2,12.2,4.9,24.9,4.9,38.1c0,20.6-4.1,40.1-11.6,58
		c7.2-2.2,15.2-1.5,22.2,2.5C425.8,340.4,430.4,357.6,422.7,371L422.7,371L422.7,371z"/>
	<path class="st3" d="M80.1,371c-7.8-13.4-3.2-30.6,10.3-38.4c7-4.1,15.1-4.7,22.3-2.5c-12.5-30-15.2-63.8-6.8-96.1
		c3.9,6.7,9.5,12.5,16.7,16.6c1.2,0.7,2.4,1.3,3.6,1.9c-7.8,50.2,15.2,102.5,61.8,129.4c5.8,3.3,11.7,6.2,17.8,8.5
		c-0.1,1.3-0.2,2.7-0.2,4.1c0,8.3,2.2,16,6.1,22.7c-12.1-3.3-24-8.2-35.4-14.8c-17.8-10.3-32.7-23.6-44.4-39
		c-1.7,7.3-6.3,13.9-13.3,18C105.1,389.1,87.9,384.5,80.1,371L80.1,371L80.1,371z"/>
	<path class="st3" d="M251.4,74.4c15.5,0,28.1,12.6,28.1,28.1c0,8.1-3.4,15.4-8.9,20.5c32.2,4.2,62.9,18.7,86.6,42.2
		c-7.7,0-15.6,2-22.7,6.1c-1.2,0.7-2.3,1.4-3.4,2.2c-39.6-31.9-96.4-38-143-11.1c-5.8,3.3-11.2,7.1-16.2,11.1
		c-1.1-0.8-2.2-1.5-3.4-2.2c-7.2-4.1-15-6.1-22.7-6.1c9-8.8,19.2-16.7,30.6-23.3c17.8-10.3,36.8-16.5,56-19
		c-5.5-5.1-8.9-12.4-8.9-20.5C223.3,87,235.9,74.4,251.4,74.4L251.4,74.4L251.4,74.4z"/>
	<path class="st3" d="M121.2,196.9c7.8-13.4,24.9-18,38.4-10.3c7.2,4.2,11.9,11.1,13.5,18.7c16.5-19.4,40.1-32.6,66.6-35.6v23.8
		c-38.1,5.8-67.6,38.9-67.6,78.6c0,10.2,2,20,5.5,29l-20.7,11.9c-5.5-12.6-8.5-26.4-8.5-41c0-12.1,2.1-23.7,6-34.5
		c-7.3,2.4-15.6,1.8-22.8-2.3C118,227.5,113.4,210.4,121.2,196.9L121.2,196.9L121.2,196.9z"/>
</g>
</svg>
