<?xml version="1.0" encoding="utf-8"?>
<!-- Generator: Adobe Illustrator 25.2.3, SVG Export Plug-In . SVG Version: 6.00 Build 0)  -->
<svg version="1.1" id="Layer_1" xmlns="http://www.w3.org/2000/svg" xmlns:xlink="http://www.w3.org/1999/xlink" x="0px" y="0px"
	 viewBox="0 0 500 500" style="enable-background:new 0 0 500 500;" xml:space="preserve">
<style type="text/css">
	.st0{fill:none;stroke:#FFFFFF;stroke-width:2.8381;}
	.st1{fill:none;stroke:#98B7DD;stroke-width:4.3718;}
	.st2{fill:#BE0027;}
	.st3{fill:#ED1C24;}
</style>
<path class="st0" d="M1354.6,637"/>
<path d="M1429.2,586.9"/>
<path class="st1" d="M1429.2,586.9"/>
<path class="st2" d="M1296.4,618.8"/>
<path class="st1" d="M1296.4,618.8"/>
<path class="st2" d="M1296.4,618.8"/>
<path class="st1" d="M1296.4,618.8"/>
<path d="M1429.2,586.9"/>
<path class="st1" d="M1429.2,586.9"/>
<g>
	<path class="st3" d="M148.8,185.7c28.8-23.3,63-36.8,99.8-36.8c90.2,0,165.4,81.6,182.3,189.8h-48.1c-6.5-36.9-20.6-70.2-40.2-97
		v97H327V223c-28.8-30.6-66-49.1-106.5-49.1c-24.6,0-48,6.8-69.1,19C136.6,201.6,134.7,197.1,148.8,185.7L148.8,185.7z"/>
	<path class="st3" d="M217.5,186.2c25.2,0,49,7.6,70.1,21c17.3,11,15,16.1-2.9,8.8v122.7h-15.5V210.8c-9.1-2.4-18.5-3.6-28.1-3.6
		c-4.8,0-9.5,0.3-14.2,0.9v130.6h-15.5V211.3c-15.2,4.2-29.4,11.5-42.3,21.3v106.2h-15.5v-92.4c-22.8,23.3-39.8,55.4-47.6,92.4H65.2
		C81.6,251.2,143.6,186.2,217.5,186.2L217.5,186.2z"/>
</g>
</svg>
